<?xml version="1.0" standalone="no"?>
<!DOCTYPE svg PUBLIC "-//W3C//DTD SVG 20010904//EN"
 "http://www.w3.org/TR/2001/REC-SVG-20010904/DTD/svg10.dtd">
<svg version="1.0" xmlns="http://www.w3.org/2000/svg"
 width="388.000000pt" height="104.000000pt" viewBox="0 0 388.000000 104.000000"
 preserveAspectRatio="xMidYMid meet">
<metadata>
Created by potrace 1.15, written by Peter Selinger 2001-2017
</metadata>
<g transform="translate(0.000000,104.000000) scale(0.100000,-0.100000)"
fill="#000000" stroke="none">
<path d="M0 974 c0 -49 3 -64 12 -60 7 3 21 9 30 12 12 4 18 17 18 38 0 36 7
48 35 64 17 10 11 11 -37 12 l-58 0 0 -66z"/>
<path d="M410 1030 c0 -11 16 -13 83 -10 26 1 53 -2 60 -8 7 -5 35 -12 62 -14
70 -6 105 -31 105 -74 0 -19 5 -34 10 -34 6 0 10 -18 10 -40 0 -22 5 -40 10
-40 6 0 10 -7 10 -15 0 -8 5 -15 10 -15 6 0 10 -5 10 -11 0 -20 54 -54 95 -59
l40 -5 3 -55 c3 -44 -2 -64 -25 -108 -15 -30 -38 -64 -51 -76 -63 -57 -62 -55
-62 -144 0 -86 -10 -112 -44 -112 -11 0 -16 -10 -16 -33 0 -19 -8 -42 -20 -55
-11 -12 -20 -25 -20 -30 0 -5 -18 -27 -40 -50 l-39 -42 1639 0 1640 0 0 155 0
155 -88 0 c-86 0 -89 1 -125 34 -27 25 -37 42 -37 64 0 17 -6 32 -13 35 -9 3
-9 9 1 26 6 11 12 30 12 41 0 11 16 36 35 55 34 35 35 35 125 35 l90 0 0 220
0 220 -1735 0 c-1150 0 -1735 -3 -1735 -10z m2628 -313 c4 -33 -15 -54 -54
-59 -23 -2 -30 -8 -32 -30 l-3 -28 130 0 131 0 0 -35 c0 -25 -5 -37 -17 -41
-61 -19 -63 -23 -63 -99 0 -88 -19 -118 -72 -113 l-33 3 -3 103 -3 102 -34 0
-35 0 0 -88 c0 -105 -10 -125 -60 -120 l-35 3 -3 103 c-3 101 -3 102 -27 102
-25 0 -25 -1 -25 -89 0 -49 -3 -96 -6 -105 -5 -13 -25 -16 -110 -16 l-105 0
-35 35 c-19 19 -39 45 -44 57 -8 21 -9 20 -9 -10 -1 -33 -20 -62 -40 -62 -6 0
-11 -4 -11 -10 0 -6 -33 -10 -80 -10 -80 0 -80 0 -120 40 -38 38 -40 39 -40
16 0 -39 -38 -56 -128 -56 -70 0 -82 3 -105 24 l-26 24 -3 -22 c-3 -20 -9 -21
-126 -24 -116 -2 -124 -1 -129 17 -3 11 -11 22 -19 25 -8 3 -14 13 -14 22 0
12 -12 5 -41 -24 l-41 -42 -77 0 c-68 0 -81 3 -104 24 l-26 24 -18 -24 c-15
-20 -27 -24 -68 -24 -28 0 -56 5 -63 12 -7 7 -12 43 -12 90 0 64 -3 76 -15 72
-10 -4 -15 -27 -17 -87 l-3 -82 -60 0 -60 0 0 205 0 205 60 0 60 0 5 -50 5
-50 43 -1 c24 0 47 -5 50 -10 4 -5 19 -15 35 -23 15 -8 27 -23 27 -33 0 -25 8
-23 40 12 15 17 38 30 50 30 12 0 29 7 37 16 16 16 65 12 71 -7 2 -5 15 -9 28
-9 13 0 24 -4 24 -10 0 -5 9 -10 19 -10 11 0 22 -6 24 -12 3 -7 6 -3 6 10 1
21 5 22 76 22 l75 0 0 -80 c0 -66 2 -78 15 -74 11 5 15 24 15 80 l0 74 65 0
c59 0 65 -2 65 -20 l0 -21 22 21 c12 11 30 20 39 20 10 0 19 5 21 11 2 5 22
13 44 16 29 4 43 1 53 -11 7 -9 22 -16 33 -16 23 0 48 -23 48 -44 0 -9 5 -16
10 -16 6 0 10 6 10 13 0 17 36 47 56 47 8 0 22 7 30 15 9 8 31 15 49 15 18 0
40 -7 49 -15 8 -8 22 -15 30 -15 9 0 16 -4 16 -10 0 -5 9 -10 20 -10 16 0 20
-7 20 -37 l0 -38 33 38 c19 20 41 37 50 37 10 0 17 5 17 10 0 6 50 10 130 10
l130 0 0 34 c0 18 6 46 14 60 23 45 45 56 111 53 57 -2 60 -3 63 -30z m270
-54 l3 -43 -45 0 -46 0 0 38 c0 48 6 54 50 50 34 -3 35 -5 38 -45z m-3 -208
l0 -140 -40 0 -40 0 -3 143 -3 143 43 -3 43 -3 0 -140z m245 135 c0 -5 7 -10
16 -10 9 0 18 -9 21 -20 3 -11 9 -20 14 -20 5 0 9 -13 9 -30 0 -29 -2 -30 -43
-30 -31 0 -46 5 -57 20 -19 27 -46 25 -75 -5 -31 -30 -31 -38 -3 -70 26 -30
63 -32 80 -5 10 15 24 20 55 20 38 0 43 -3 43 -23 0 -33 -22 -76 -42 -83 -10
-3 -18 -10 -18 -15 0 -5 -33 -9 -73 -9 -70 0 -74 1 -103 33 -42 47 -54 72 -54
117 0 46 33 104 72 125 28 16 158 19 158 5z"/>
<path d="M2613 505 c-18 -20 -16 -80 2 -95 8 -7 26 -12 40 -12 14 0 32 5 40
12 19 16 20 77 1 96 -19 18 -67 18 -83 -1z"/>
<path d="M1470 471 c0 -25 4 -31 21 -31 16 0 20 5 17 27 -2 17 -10 29 -20 31
-14 3 -18 -3 -18 -27z"/>
<path d="M330 650 c0 -5 -6 -10 -13 -10 -7 0 -19 -9 -27 -20 -8 -11 -18 -20
-22 -20 -5 0 -24 -18 -44 -40 -28 -31 -44 -40 -69 -40 -20 0 -35 6 -39 15 -3
8 -12 15 -20 15 -7 0 -30 18 -50 40 -20 22 -38 40 -41 40 -3 0 -5 -142 -5
-315 l0 -315 205 0 204 0 -6 33 c-3 17 -9 37 -13 42 -4 6 -10 36 -13 68 -3 32
-11 64 -17 72 -6 8 -10 40 -8 77 l3 63 48 3 47 3 0 105 c0 57 -3 104 -7 104
-5 0 -29 20 -55 45 -50 47 -58 52 -58 35z"/>
<path d="M3731 503 c-22 -24 -18 -70 9 -93 24 -21 52 -19 77 6 19 19 16 74 -4
90 -24 18 -65 17 -82 -3z"/>
</g>
</svg>
